<svg width="96" height="96" viewBox="0 0 96 96" xmlns="http://www.w3.org/2000/svg">
  <rect width="96" height="96" rx="21" fill="#1a1a2e"/>
  <!-- basketball -->
  <circle cx="36" cy="48" r="31.5" fill="#E8593C"/>
  <path d="M36 16.5 Q36 48 36 79.5" stroke="#1a1a2e" stroke-width="2.2" fill="none"/>
  <path d="M4.5 48 Q19.5 40.5 36 48 Q52.5 55.5 67.5 48" stroke="#1a1a2e" stroke-width="2.2" fill="none"/>
  <path d="M9 28.5 Q22.5 34.5 33 48" stroke="#1a1a2e" stroke-width="2.2" fill="none"/>
  <path d="M9 67.5 Q22.5 61.5 33 48" stroke="#1a1a2e" stroke-width="2.2" fill="none"/>
  <circle cx="36" cy="48" r="31.5" fill="none" stroke="#C04828" stroke-width="1.5"/>
  <!-- bar chart -->
  <rect x="60" y="69" width="9" height="21" rx="3" fill="#4ade80"/>
  <rect x="72" y="57" width="9" height="33" rx="3" fill="#4ade80" opacity=".85"/>
  <rect x="84" y="42" width="9" height="48" rx="3" fill="#4ade80" opacity=".7"/>
  <!-- trend line -->
  <polyline points="64.5,66 76.5,54 88.5,39" stroke="#86efac" stroke-width="2.2" fill="none" stroke-linecap="round"/>
  <circle cx="88.5" cy="39" r="3" fill="#86efac"/>
</svg>
